<?xml version="1.0" encoding="utf-8"?>
<!-- Generator: Adobe Illustrator 16.0.0, SVG Export Plug-In . SVG Version: 6.00 Build 0)  -->
<!DOCTYPE svg PUBLIC "-//W3C//DTD SVG 1.1//EN" "http://www.w3.org/Graphics/SVG/1.1/DTD/svg11.dtd">
<svg version="1.1" id="Capa_1" xmlns="http://www.w3.org/2000/svg" xmlns:xlink="http://www.w3.org/1999/xlink" x="0px" y="0px"
	 width="35.215px" height="30px" viewBox="0 0 35.215 30" enable-background="new 0 0 35.215 30" xml:space="preserve">
<g>
	<path fill="#FFFFFF" d="M30.269,14.348l4.756-4.756c0.254-0.255,0.254-0.667,0-0.922c-0.256-0.255-0.668-0.255-0.922,0
		l-4.758,4.756L24.589,8.67c-0.255-0.255-0.667-0.255-0.922,0s-0.255,0.667,0,0.922l4.756,4.756l-4.756,4.757
		c-0.255,0.254-0.255,0.666,0,0.922c0.127,0.127,0.294,0.19,0.461,0.19s0.334-0.063,0.461-0.19l4.756-4.756l4.758,4.756
		c0.127,0.127,0.293,0.19,0.461,0.19c0.166,0,0.334-0.063,0.461-0.19c0.254-0.256,0.254-0.668,0-0.922L30.269,14.348z"/>
	<path fill="#FFFFFF" d="M18.523,0.262c-0.635-0.36-1.39-0.348-2.015,0.029c-0.03,0.019-0.06,0.039-0.085,0.062L7.587,7.828H0.652
		C0.292,7.828,0,8.12,0,8.479V20.87c0,0.174,0.069,0.34,0.19,0.462c0.123,0.121,0.289,0.19,0.461,0.19l6.92-0.004l8.832,8.112
		c0.033,0.03,0.068,0.056,0.104,0.078C16.83,29.903,17.185,30,17.541,30c0.337-0.001,0.674-0.087,0.982-0.263
		c0.651-0.367,1.041-1.039,1.041-1.797V2.06C19.564,1.302,19.174,0.631,18.523,0.262z M18.259,27.942
		c0,0.28-0.142,0.527-0.377,0.662c-0.102,0.057-0.357,0.166-0.652,0.017l-8.752-8.04v-2.973c0-0.359-0.291-0.65-0.651-0.65
		s-0.652,0.291-0.652,0.65v2.606l-5.868,0.003V9.132h5.868v2.607c0,0.361,0.292,0.652,0.652,0.652s0.651-0.291,0.651-0.652V8.782
		l8.742-7.396c0.301-0.157,0.561-0.046,0.663,0.013c0.236,0.133,0.377,0.379,0.377,0.66L18.259,27.942L18.259,27.942z"/>
</g>
</svg>
