<?xml version="1.0" encoding="utf-8"?>
<!-- Generator: Adobe Illustrator 16.0.0, SVG Export Plug-In . SVG Version: 6.00 Build 0)  -->
<!DOCTYPE svg PUBLIC "-//W3C//DTD SVG 1.1//EN" "http://www.w3.org/Graphics/SVG/1.1/DTD/svg11.dtd">
<svg version="1.1" id="Capa_1" xmlns="http://www.w3.org/2000/svg" xmlns:xlink="http://www.w3.org/1999/xlink" x="0px" y="0px"
	 width="37.968px" height="30px" viewBox="0 0 37.968 30" enable-background="new 0 0 37.968 30" xml:space="preserve">
<g>
	<path fill="#FFFFFF" d="M17.973,0.927c-0.617-0.349-1.349-0.338-1.955,0.027c-0.029,0.019-0.058,0.038-0.082,0.06L7.362,8.268
		H0.632C0.282,8.268,0,8.55,0,8.9v12.022c0,0.168,0.065,0.329,0.187,0.447c0.118,0.118,0.278,0.187,0.446,0.187l6.714-0.004
		l8.57,7.872c0.031,0.028,0.064,0.054,0.102,0.075c0.313,0.188,0.656,0.282,1.002,0.282c0.326,0,0.652-0.085,0.953-0.255
		c0.633-0.355,1.01-1.008,1.01-1.743V2.671C18.983,1.936,18.606,1.284,17.973,0.927z M17.717,27.784
		c0,0.272-0.137,0.513-0.365,0.642c-0.099,0.057-0.348,0.162-0.634,0.018l-8.493-7.801v-2.884c0-0.351-0.283-0.633-0.633-0.633
		s-0.633,0.282-0.633,0.633v2.528l-5.695,0.002V9.532h5.695v2.53c0,0.351,0.283,0.634,0.633,0.634s0.633-0.283,0.633-0.634V9.193
		l8.482-7.176C17,1.864,17.252,1.973,17.35,2.027c0.229,0.131,0.366,0.371,0.366,0.644L17.717,27.784L17.717,27.784z"/>
	<path fill="#FFFFFF" d="M32.921,14.911c0-5.282-3.362-9.974-8.37-11.673c-0.331-0.112-0.691,0.064-0.804,0.396
		c-0.111,0.33,0.065,0.69,0.396,0.804c4.493,1.524,7.512,5.734,7.512,10.475c0,4.734-3.012,8.943-7.496,10.477
		c-0.332,0.111-0.508,0.471-0.396,0.803c0.091,0.263,0.337,0.429,0.599,0.429c0.067,0,0.138-0.011,0.205-0.034
		C29.565,24.879,32.921,20.188,32.921,14.911z"/>
	<path fill="#FFFFFF" d="M28.129,0.051c-0.322-0.135-0.693,0.014-0.831,0.335c-0.136,0.322,0.015,0.693,0.336,0.83
		c5.509,2.337,9.067,7.714,9.067,13.695c0,6.188-3.729,11.631-9.502,13.866c-0.326,0.127-0.487,0.494-0.361,0.818
		C26.936,29.848,27.175,30,27.429,30c0.076,0,0.153-0.014,0.229-0.042c6.263-2.429,10.31-8.335,10.31-15.048
		C37.967,8.42,34.106,2.587,28.129,0.051z"/>
	<path fill="#FFFFFF" d="M27.227,14.911c0-3.779-2.537-7.152-6.17-8.202c-0.336-0.095-0.687,0.096-0.783,0.434
		c-0.098,0.334,0.097,0.687,0.433,0.783c3.095,0.895,5.256,3.768,5.256,6.986c0,3.22-2.161,6.092-5.256,6.986
		c-0.336,0.097-0.529,0.446-0.433,0.783c0.08,0.276,0.332,0.457,0.607,0.457c0.059,0,0.117-0.009,0.176-0.025
		C24.69,22.063,27.227,18.689,27.227,14.911z"/>
</g>
</svg>
